<svg id="chemistry" xmlns="http://www.w3.org/2000/svg" width="26.561" height="26.561" viewBox="0 0 26.561 26.561">
  <path id="Контур_18" data-name="Контур 18" d="M23.241,19.9l-5.989-8.235V3.656h1.656V2H8.969V3.656h1.656v8.013L4.637,19.9a3.328,3.328,0,0,0,2.692,5.286H20.549A3.328,3.328,0,0,0,23.241,19.9Zm-10.959-7.7V3.656H15.6v8.552l2.214,3.044h-7.74Zm8.267,11.326H7.328a1.672,1.672,0,0,1-1.352-2.655l2.888-3.97h10.15l2.888,3.97a1.672,1.672,0,0,1-1.352,2.655Z" transform="translate(-0.687 0.278)" fill="#757575"/>
  <rect id="_Transparent_Rectangle_" data-name="&lt;Transparent Rectangle&gt;" width="26.561" height="26.561" fill="none"/>
</svg>
