<svg id="gear" xmlns="http://www.w3.org/2000/svg" width="24.488" height="24.488" viewBox="0 0 24.488 24.488">
  <path id="Контур_44" data-name="Контур 44" d="M22.415,8.979h-.98c-.18,0-.343-.188-.416-.375a.5.5,0,0,1,.033-.547l.694-.694A2.014,2.014,0,0,0,21.8,4.49l-1.8-1.8a2.041,2.041,0,0,0-2.89.065l-.686.686a.51.51,0,0,1-.5.057c-.229-.073-.424-.278-.424-.441v-.98A1.989,1.989,0,0,0,13.518,0H10.971A1.989,1.989,0,0,0,8.979,2.073v.98c0,.163-.2.367-.424.441a.51.51,0,0,1-.5-.057l-.686-.686a2.041,2.041,0,0,0-2.89-.065l-1.8,1.8a2.014,2.014,0,0,0,.057,2.873l.694.694a.5.5,0,0,1,.033.547c-.073.188-.237.375-.416.375h-.98A2.013,2.013,0,0,0,0,10.971v2.547a2.013,2.013,0,0,0,2.073,1.992h.98c.18,0,.335.18.408.351a.55.55,0,0,1-.024.571l-.694.694a2.123,2.123,0,0,0-.629,1.4,1.936,1.936,0,0,0,.571,1.477l1.8,1.8a2.016,2.016,0,0,0,1.486.58,2.168,2.168,0,0,0,1.4-.637l.686-.686a.479.479,0,0,1,.571-.033.534.534,0,0,1,.212.139.375.375,0,0,1,.139.269V22.4a2.018,2.018,0,0,0,1.992,2.09h2.547a2.018,2.018,0,0,0,1.992-2.09v-.963a.375.375,0,0,1,.139-.269.534.534,0,0,1,.212-.139.479.479,0,0,1,.571.033l.686.686a2.168,2.168,0,0,0,1.4.637,2.016,2.016,0,0,0,1.486-.58l1.8-1.8a1.936,1.936,0,0,0,.571-1.477,2.123,2.123,0,0,0-.629-1.4l-.694-.694a.55.55,0,0,1-.024-.571c.073-.171.229-.351.408-.351h.98a2.013,2.013,0,0,0,2.073-1.992V10.971a2.013,2.013,0,0,0-2.073-1.992Zm.441,4.538c0,.286-.278.359-.441.359h-.98a2.1,2.1,0,0,0-1.9,1.322,2.154,2.154,0,0,0,.294,2.318l.073.082.686.686a.5.5,0,0,1,.163.318.322.322,0,0,1-.106.245l-1.8,1.8a.306.306,0,0,1-.245.106.452.452,0,0,1-.327-.163l-.686-.686a2.022,2.022,0,0,0-1.445-.58,2.3,2.3,0,0,0-.931.2A2.156,2.156,0,0,0,14.5,20a1.984,1.984,0,0,0-.62,1.437V22.4c0,.171-.073.457-.359.457H10.971c-.286,0-.359-.286-.359-.457v-.963A1.984,1.984,0,0,0,9.991,20a2.156,2.156,0,0,0-.718-.473,2.3,2.3,0,0,0-.931-.2A2.022,2.022,0,0,0,6.9,19.9l-.686.686a.452.452,0,0,1-.327.163.306.306,0,0,1-.245-.106l-1.8-1.8a.322.322,0,0,1-.106-.245.5.5,0,0,1,.163-.318l.686-.686.073-.082A2.154,2.154,0,0,0,4.955,15.2a2.1,2.1,0,0,0-1.9-1.322h-.98c-.163,0-.441-.073-.441-.359V10.971c0-.286.278-.359.441-.359h.98a2.121,2.121,0,0,0,1.926-1.38A2.141,2.141,0,0,0,4.6,6.9l-.7-.694a.39.39,0,0,1-.049-.563l1.788-1.8a.4.4,0,0,1,.58.065L6.9,4.6a2.122,2.122,0,0,0,2.163.449,2.172,2.172,0,0,0,1.551-1.992v-.98c0-.2.1-.441.359-.441h2.547c.261,0,.359.237.359.441v.98a2.172,2.172,0,0,0,1.551,1.992A2.122,2.122,0,0,0,17.591,4.6l.686-.686a.4.4,0,0,1,.58-.065l1.788,1.8a.39.39,0,0,1-.049.563l-.7.694a2.141,2.141,0,0,0-.384,2.335,2.121,2.121,0,0,0,1.926,1.38h.98c.163,0,.441.073.441.359Z" transform="translate(0 0)" fill="#757575"/>
  <path id="Контур_45" data-name="Контур 45" d="M13.9,18.8a4.9,4.9,0,1,1,4.9-4.9A4.9,4.9,0,0,1,13.9,18.8Zm0-8.163A3.265,3.265,0,1,0,17.163,13.9,3.268,3.268,0,0,0,13.9,10.633Z" transform="translate(-1.654 -1.654)" fill="#757575"/>
</svg>
